#define image_width  16
#define image_height 12
static unsigned char image_bits[] = {
 0x00,0x00,0xfe,0x3f,0x01,0x40,0x89,0x48,0x4d,0x55,0x49,0xd5,
 0x49,0xd5,0x49,0x55,0x9d,0x48,0x01,0x40,0xfe,0x3f,0x00,0x00};
