/* XPM */
static char * exemple_xpm[] = {
"18 12 3 1",
" c None",
".c #38b000",
"+c #ffffff",
"                  ",
" +++++++++++++    ",
"+             +   ",
"+ ... ... ... +   ",
"+ ... ... ... +   ",
"+ ... ... ... ++  ",
"+ ... ... ... ++  ",
"+ ... ... ... +   ",
"+ ... ... ... +   ",
"+             +   ",
" +++++++++++++    ",
"                  "};