/* XPM */
static char * exemple_xpm[] = {
"18 12 4 1",
" c None",
".c #ffd000",
"+c #ffffff",
"xc #38b000",
"                  ",
" +++++++++++++    ",
"+             +   ",
"+ xxx .       +   ",
"+ xx....      +   ",
"+ .......     ++  ",
"+ xxx ....... ++  ",
"+ xxx x....   +   ",
"+ xxx x .     +   ",
"+             +   ",
" +++++++++++++    ",
"                  "};
