/* XPM */
static char * exemple_xpm[] = {
"20 13 2 1",
" c None",
"xc #ff8800",
"                    ",
"                    ",
"                    ",
"                    ",
"                    ",
"                    ",
"                    ",
"      xxx           ",
"      xxx           ",
" xxx  xxx           ",
" xxx  xxx           ",
" xxx  xxx  xxx  xxx ",
"                    "};
