/* XPM */
static char * exemple_xpm[] = {
"18 12 3 1",
" c None",
".c #ff8800",
"+c #ffffff",
"                  ",
" +++++++++++++    ",
"+             +   ",
"+ ... ..      +   ",
"+ ... ..      +   ",
"+ ... ..      ++  ",
"+ ... ..      ++  ",
"+ ... ..      +   ",
"+ ... ..      +   ",
"+             +   ",
" +++++++++++++    ",
"                  "};
