/* XPM */
static char * exemple_xpm[] = {
"18 12 3 1",
" c None",
".c #e01e37",
"+c #ffffff",
"                  ",
" +++++++++++++    ",
"+             +   ",
"+ ..          +   ",
"+ ..          +   ",
"+ ..          ++  ",
"+ ..          ++  ",
"+ ...         +   ",
"+ ...         +   ",
"+             +   ",
" +++++++++++++    ",
"                  "};
